<svg width="198" height="104" viewBox="0 0 198 104" fill="none" xmlns="http://www.w3.org/2000/svg">
<g id="logo 1" clip-path="url(#clip0_1_2)">
<path id="center" d="M43.637 83.6581C24.4168 58.9741 31.6464 12.4249 40.5252 9.89638C49.4041 7.36788 61.7162 49.3472 75.7916 46.487C86.8694 44.228 88.1763 16.2384 97.5738 15.8031C107.334 15.3368 112.438 45.3679 120.881 44.715C130.818 43.9482 131.388 1.83422 139.551 1.04666C147.528 0.27982 165.586 38.7979 155.11 65.9586C140.225 104.218 69.7963 117.264 43.637 83.6581Z" fill="#FDCE0B" stroke="#262262" stroke-width="2" stroke-miterlimit="10"/>
<path id="right" d="M158.211 27.0673C158.626 25.8135 195.967 33.0984 196.942 50.5388C197.979 68.6943 158.73 83.544 158.325 82.5907C157.921 81.6373 188.851 67.8964 188.167 51.772C187.534 36.1969 157.838 28.2383 158.211 27.0673Z" fill="#FDCE0B" stroke="#262262" stroke-width="2" stroke-miterlimit="10"/>
<path id="left" d="M51.3956 97.6062C51.6964 99.0881 13.7435 107.161 3.48515 89.4404C-7.19849 70.9948 20.579 39.1295 21.4606 39.9482C22.3423 40.7668 1.52476 68.0104 10.8289 84.5078C19.801 100.383 51.1259 96.2694 51.3956 97.6062Z" fill="#FDCE0B" stroke="#262262" stroke-width="2" stroke-miterlimit="10"/>
</g>
<defs>
<clipPath id="clip0_1_2">
<rect width="198" height="104" fill="white"/>
</clipPath>
</defs>
</svg>
